<?xml version="1.0" standalone="no"?>
<!DOCTYPE svg PUBLIC "-//W3C//DTD SVG 20010904//EN"
 "http://www.w3.org/TR/2001/REC-SVG-20010904/DTD/svg10.dtd">
<svg version="1.0" xmlns="http://www.w3.org/2000/svg"
 width="1024.000000pt" height="1024.000000pt" viewBox="0 0 1024.000000 1024.000000"
 preserveAspectRatio="xMidYMid meet">
<metadata>
Created by potrace 1.14, written by Peter Selinger 2001-2017
</metadata>
<g transform="translate(0.000000,1024.000000) scale(0.100000,-0.100000)"
fill="#000000" stroke="none">
<path d="M4983 9189 c-133 -37 -254 -134 -314 -250 -59 -116 -58 -106 -59
-703 0 -303 -3 -552 -6 -555 -3 -3 -429 -7 -947 -7 -518 -1 -944 -3 -947 -4
-3 -1 -9 -2 -13 -1 -12 2 -172 -25 -172 -29 0 -1 -7 -3 -15 -5 -8 -2 -26 -6
-40 -9 -124 -27 -387 -165 -475 -249 -13 -12 -43 -41 -68 -64 -25 -23 -64 -66
-88 -95 -24 -29 -46 -55 -49 -58 -14 -13 -94 -147 -123 -207 -85 -176 -125
-352 -130 -571 -1 -39 2 -72 6 -72 5 0 5 -5 1 -11 -9 -15 -11 -229 -2 -229 4
0 5 -7 1 -15 -9 -24 -9 -705 0 -705 5 0 5 -5 1 -11 -9 -15 -11 -229 -2 -229 4
0 5 -7 1 -15 -9 -24 -9 -705 0 -705 5 0 5 -5 1 -11 -9 -15 -11 -229 -2 -229 4
0 5 -7 1 -16 -9 -24 -9 -464 0 -464 5 0 5 -5 1 -11 -10 -17 -11 -309 -1 -309
5 0 5 -5 1 -11 -10 -17 -11 -309 -1 -309 5 0 5 -5 1 -11 -9 -16 -11 -309 -2
-309 4 0 5 -7 1 -16 -8 -22 -9 -544 -1 -544 4 0 4 -10 0 -22 -14 -40 0 -229
23 -304 7 -24 11 -44 9 -44 -6 0 56 -163 79 -204 134 -247 335 -416 594 -502
43 -14 92 -27 108 -29 17 -2 30 -4 30 -5 0 -14 5311 -21 5410 -8 33 5 71 10
85 12 14 2 32 6 40 9 8 2 35 11 60 18 25 7 68 23 97 36 28 13 54 23 57 23 12
0 117 69 176 116 120 95 210 203 274 328 43 86 86 193 79 199 -2 3 0 14 5 24
11 19 17 52 28 148 8 67 12 4465 4 4465 -3 0 -5 30 -5 68 -1 70 -6 114 -25
197 -7 28 -13 55 -14 60 -8 39 -55 159 -88 227 -45 94 -134 225 -190 283 -21
22 -53 55 -71 74 -41 43 -168 139 -232 176 -80 47 -159 84 -167 79 -5 -3 -8
-1 -8 3 0 9 -89 39 -102 35 -5 -1 -8 2 -8 6 0 5 -6 9 -12 9 -13 1 -23 3 -103
22 -92 22 -194 24 -1095 25 l-945 1 -1 531 c-1 292 -4 549 -8 570 -18 105 -72
209 -143 280 -57 56 -71 66 -143 101 -117 56 -235 67 -357 32z m-1238 -3455
c191 -48 363 -202 438 -391 9 -24 14 -43 12 -43 -3 0 -1 -9 5 -19 21 -41 30
-158 18 -249 -15 -107 -58 -216 -118 -295 -32 -43 -143 -147 -156 -147 -8 0
-14 -3 -14 -8 0 -17 -138 -77 -210 -90 -88 -16 -125 -17 -210 -8 -87 9 -95 11
-100 16 -3 4 -25 12 -50 19 -25 7 -56 21 -70 30 -14 9 -37 23 -52 31 -16 7
-28 17 -28 22 0 4 -4 8 -10 8 -37 0 -202 218 -214 283 -2 14 -9 34 -14 44 -12
22 -27 129 -26 188 3 181 80 347 216 469 65 57 197 129 258 140 19 4 53 10 75
14 57 11 179 4 250 -14z m3049 6 c33 -7 67 -15 75 -19 114 -53 162 -84 221
-141 70 -69 114 -120 104 -120 -4 0 -2 -6 4 -12 49 -61 83 -167 96 -304 4 -48
-16 -195 -34 -239 -69 -177 -198 -313 -358 -378 -59 -24 -78 -30 -152 -43 -88
-16 -207 -3 -304 32 -39 14 -79 28 -88 31 -10 3 -18 9 -18 14 0 5 -6 9 -13 9
-8 0 -22 9 -32 20 -10 11 -22 20 -28 20 -11 0 -80 70 -125 127 -30 39 -91 160
-107 213 -9 32 -18 129 -17 185 1 70 35 224 51 234 4 4 12 17 16 31 4 14 21
45 38 70 33 49 137 159 150 160 5 0 23 11 41 25 27 21 176 89 176 81 0 -1 26
3 57 9 69 14 167 12 247 -5z m-2698 -2927 l-1 -256 -22 -2 c-13 -1 -23 3 -23
8 0 6 -5 6 -12 0 -14 -10 -55 -10 -65 0 -3 4 -13 2 -22 -3 -10 -5 -23 -5 -31
0 -8 5 -21 5 -30 0 -9 -5 -22 -5 -30 0 -8 5 -21 5 -30 0 -9 -5 -22 -5 -30 0
-8 5 -21 5 -30 0 -9 -5 -22 -5 -30 0 -8 5 -21 5 -30 0 -9 -5 -22 -5 -30 0 -8
5 -21 5 -30 0 -9 -5 -22 -5 -30 0 -8 5 -21 5 -30 0 -9 -5 -22 -5 -30 0 -8 5
-21 5 -30 0 -9 -5 -22 -5 -30 0 -8 5 -21 5 -30 0 -9 -5 -22 -5 -30 0 -8 5 -21
5 -30 0 -9 -5 -22 -5 -30 0 -8 5 -21 5 -30 0 -9 -5 -22 -5 -30 0 -8 5 -21 5
-30 0 -9 -5 -22 -5 -30 0 -8 5 -21 5 -30 0 -9 -5 -22 -5 -30 0 -8 5 -21 5 -30
0 -9 -5 -22 -5 -30 0 -8 5 -21 5 -31 -1 -12 -6 -20 -5 -26 3 -8 13 -15 472 -8
496 4 9 115 12 513 12 l508 0 0 -257z m1538 7 c-1 -138 -4 -253 -7 -256 -10
-10 -57 -12 -57 -2 0 5 -7 5 -17 -1 -10 -5 -26 -5 -39 -1 -12 5 -24 7 -27 4
-8 -9 -77 -10 -77 -2 0 5 -8 5 -17 -1 -10 -5 -26 -5 -39 -1 -12 5 -24 7 -27 4
-8 -9 -77 -10 -77 -2 0 5 -8 5 -17 0 -10 -5 -27 -6 -38 -2 -11 4 -29 4 -40 1
-24 -8 -87 -7 -101 2 -6 3 -16 2 -24 -3 -8 -5 -21 -5 -30 0 -9 5 -22 5 -30 0
-8 -5 -21 -5 -30 0 -9 5 -22 5 -30 0 -8 -5 -21 -5 -30 0 -9 5 -22 5 -30 0 -8
-5 -21 -5 -30 0 -9 5 -22 5 -30 0 -8 -5 -21 -5 -30 0 -9 5 -22 5 -30 0 -8 -5
-22 -4 -32 1 -10 5 -18 6 -18 2 0 -4 -11 -8 -25 -8 -14 0 -25 4 -25 8 0 5 -4
5 -10 2 -7 -4 -10 82 -10 249 l0 256 513 0 512 0 -1 -250z m1533 -5 c0 -210
-3 -255 -14 -251 -7 3 -13 2 -13 -2 0 -9 -47 -8 -56 1 -4 4 -12 4 -17 0 -16
-10 -57 -10 -57 0 0 4 -8 4 -17 -2 -10 -5 -26 -5 -39 -1 -12 5 -24 7 -27 4 -8
-9 -77 -10 -77 -2 0 5 -8 5 -17 -1 -10 -5 -26 -5 -39 -1 -12 5 -24 7 -27 4 -8
-9 -77 -10 -77 -2 0 5 -8 5 -17 -1 -10 -5 -26 -5 -39 -1 -12 5 -24 7 -27 4 -8
-9 -77 -10 -77 -2 0 5 -8 5 -17 -1 -10 -5 -26 -5 -39 -1 -12 5 -24 7 -27 4 -8
-9 -77 -10 -77 -2 0 5 -8 5 -17 -1 -9 -5 -26 -6 -37 -1 -12 4 -30 4 -41 0 -11
-4 -29 -4 -40 0 -11 4 -29 4 -40 0 -51 -18 -51 -18 -49 253 1 139 2 253 3 255
0 1 230 2 509 2 l509 0 0 -255z"/>
<path d="M426 5623 c-2 -2 -13 -6 -25 -8 -91 -17 -169 -62 -246 -139 -64 -64
-120 -153 -130 -204 -2 -9 -4 -17 -5 -17 -11 0 -13 -201 -15 -1145 -2 -1238
-5 -1180 70 -1301 82 -134 224 -229 360 -244 25 -2 50 -7 55 -10 6 -3 10 -1
10 5 0 7 6 8 18 1 11 -6 24 -6 35 0 9 6 17 6 17 1 0 -10 30 -9 48 2 6 4 12 3
12 -2 0 -10 30 -9 48 2 6 4 12 3 12 -2 0 -10 30 -9 48 2 6 4 12 4 12 -1 0 -4
16 -8 35 -8 19 0 35 4 35 8 0 5 6 5 13 0 16 -10 39 -10 54 1 7 5 13 5 13 0 0
-5 16 -9 35 -9 19 0 35 4 35 9 0 5 6 4 13 -2 6 -5 19 -7 27 -3 14 5 16 168 14
1531 -1 839 -2 1528 -3 1532 -1 7 -588 8 -595 1z"/>
<path d="M9219 5627 c-1 -1 -2 -690 -3 -1530 -1 -1489 -1 -1529 18 -1539 14
-7 17 -7 11 2 -6 9 -2 9 14 1 15 -8 21 -9 21 -1 0 6 5 8 12 4 18 -11 48 -12
48 -2 0 5 6 6 12 2 18 -11 48 -12 48 -2 0 5 6 6 12 2 18 -11 48 -12 48 -2 0 5
6 6 12 2 18 -11 48 -12 48 -2 0 5 6 6 12 2 18 -11 48 -12 48 -2 0 5 6 6 12 2
18 -11 48 -12 48 -2 0 5 6 6 12 2 19 -12 48 -12 48 -1 0 5 6 4 13 -2 8 -6 16
-9 18 -6 3 2 29 6 59 9 124 13 209 56 307 156 64 65 102 135 130 235 4 11 7
515 8 1120 1 831 -1 1113 -10 1152 -7 29 -11 54 -8 56 2 2 -3 10 -12 17 -8 7
-15 20 -15 30 0 25 -77 126 -134 177 -51 45 -149 97 -206 108 -31 7 -628 18
-631 12z"/>
</g>
</svg>
